<?xml version="1.0" encoding="UTF-8" standalone="no"?>
<svg
   width="1280"
   height="320"
   viewBox="0 0 1280 320"
   version="1.1"
   id="svg5"
   xmlns:xlink="http://www.w3.org/1999/xlink"
   xmlns="http://www.w3.org/2000/svg"
   xmlns:svg="http://www.w3.org/2000/svg">
  <defs
     id="defs17922">
    <radialGradient
       xlink:href="#linearGradient800"
       id="radialGradient4800"
       cx="48.934929"
       cy="103.26079"
       fx="48.934929"
       fy="103.26079"
       r="50"
       gradientTransform="matrix(2.8143579,0.03358371,-0.05278461,4.4234326,89.696046,-197.18139)"
       gradientUnits="userSpaceOnUse" />
    <linearGradient
       id="linearGradient800">
      <stop
         style="stop-color:#ee862c;"
         offset="0.27763191"
         id="stop801" />
      <stop
         style="stop-color:#6964b5;"
         offset="0.67233908"
         id="stop802" />
      <stop
         style="stop-color:#2c9dee;"
         offset="0.87621862"
         id="stop803" />
    </linearGradient>
  </defs>
  <path
     id="logo"
     style="fill:url(#radialGradient4800);"
     d="m 241.16007,278.90847 c 9.93158,-1.632 18.98974,-4.71818 24.98405,-8.51228 12.16416,-7.69933 20.84138,-19.82645 24.39201,-34.08986 1.03778,-4.16896 1.25976,-6.28952 1.29327,-12.3574 0.059,-10.58788 -1.49061,-18.20322 -8.08856,-39.76317 -3.79927,-12.41462 -6.51708,-23.54599 -7.4624,-30.56345 -0.99089,-7.35593 -0.3515,-18.42352 1.49613,-25.90058 0.84772,-3.43019 1.45921,-6.49091 1.35891,-6.80155 -0.10059,-0.31082 -1.02886,0.82936 -2.06348,2.53342 -5.30266,8.73353 -7.3649,17.94391 -6.21798,27.77054 0.8094,6.93473 2.4674,13.73446 6.69968,27.47634 8.53756,27.72109 9.72385,37.70709 6.20773,52.25725 -3.24689,13.43623 -11.47477,25.98054 -21.45883,32.71628 -16.58927,11.19194 -46.85677,13.4347 -70.56619,5.22872 -14.92032,-5.16405 -24.49963,-13.33859 -27.81467,-23.73577 -2.15261,-6.75131 -2.30814,-12.26643 -0.83506,-29.60828 2.53575,-29.85233 1.55824,-38.06398 -5.43982,-45.69782 -1.44732,-1.57879 -2.74569,-2.74988 -2.88524,-2.60244 -0.1396,0.14761 0.39514,1.54434 1.18814,3.1041 0.79304,1.55978 1.96207,4.60184 2.59786,6.76004 1.02666,3.48512 1.15285,4.9187 1.12838,12.8184 -0.0264,8.55937 -0.1232,9.39688 -2.56462,22.23597 -3.87681,20.38714 -4.22816,25.58319 -2.28196,33.74641 4.28028,17.95339 27.71317,31.02797 60.83038,33.94087 4.73002,0.41598 20.82511,-0.1872 25.50227,-0.95574 z m -5.84398,-19.05203 c 8.08104,-2.24292 15.02921,-6.56314 21.50025,-13.3685 4.70714,-4.95033 8.1943,-9.76393 10.24836,-16.03185 4.02338,-12.27717 5.75459,-23.59701 2.16286,-34.65893 -0.72998,-2.24824 -3.45752,-8.48568 -6.05088,-13.86484 -6.42632,-13.32928 -6.89601,-15.04441 -6.90566,-25.21456 -0.006,-7.44413 0.1058,-8.48689 1.37566,-12.70735 3.04758,-10.12874 9.04518,-20.02007 17.13052,-28.25187 3.70812,-3.77538 11.36418,-9.79086 12.46133,-9.79116 0.1504,-6e-5 -0.32345,1.9423 -1.05311,4.31634 -1.96325,6.3878 -2.66384,11.39684 -2.6162,18.70439 0.068,10.42246 2.22749,19.20356 7.82205,31.13043 6.25512,13.335 16.88299,22.87395 20.7843,33.273 4.13005,11.00876 4.56584,17.54237 4.07437,24.29827 -1.08657,14.93548 -7.86749,25.79841 -23.01095,36.86337 -2.5411,1.8567 -4.37153,3.46338 -4.06764,3.5704 0.9946,0.35036 8.59592,-2.57364 12.9559,-4.98372 10.5434,-5.82809 18.80187,-15.68274 21.36718,-27.84749 1.89261,-8.97492 2.13552,-17.6933 -0.0468,-26.19541 -1.94797,-7.59042 -4.663,-13.54318 -13.10518,-28.87798 -12.16482,-22.09701 -15.16782,-28.99144 -16.9753,-38.97286 -0.82912,-4.57836 -0.92054,-13.1327 -0.1914,-17.88234 0.95112,-6.19288 3.27932,-12.80336 5.64124,-16.017155 1.97622,-2.688899 3.35245,-6.616777 2.59774,-7.414137 -0.47554,-0.502381 -12.94572,6.551478 -18.61694,10.530232 -16.30141,11.43652 -26.28096,24.6552 -31.50595,41.73201 -1.66733,5.44938 -3.69699,16.04633 -3.69699,19.30221 0,1.4179 -0.0836,1.4889 -1.08352,0.92335 -2.24774,-1.271 -5.87988,-5.40862 -7.05838,-8.04069 -0.67276,-1.50254 -1.4682,-4.35212 -1.7676,-6.33227 -1.0076,-6.66414 -0.1376,-10.73806 9.15424,-42.86481 3.18727,-11.021554 2.8877,-21.22043 -0.98646,-33.568566 -2.05906,-6.563338 -4.18896,-11.082857 -8.23556,-17.475255 -3.56265,-5.628018 -12.18364,-14.956935 -13.01251,-14.081174 -0.27719,0.292899 -0.65203,3.882358 -0.83302,7.976717 -0.34278,7.746777 -1.00522,11.284556 -3.4274,18.296974 -3.45166,9.992596 -9.02732,18.293374 -26.23051,39.050484 -8.81664,10.63812 -12.95476,16.68754 -16.32682,23.86803 -4.10464,8.74052 -5.48366,13.58656 -5.49853,19.25553 -0.0181,6.93253 0.92125,9.97669 1.99197,13.43124 1.53022,4.93744 4.53738,9.6115 7.6348,11.86678 1.32168,0.96234 2.58697,1.74966 2.81187,1.74966 0.22457,0 -0.35621,-1.74984 -1.29151,-3.88852 -7.36934,-16.85232 -3.57746,-34.19231 11.58837,-52.99234 1.8066,-2.2396 6.0734,-7.14138 9.48174,-10.89286 11.47817,-12.633914 15.50488,-18.110532 19.77702,-26.897949 2.68681,-5.526539 6.12899,-15.773915 6.73165,-20.039954 0.193,-1.366859 0.49716,-2.485219 0.67579,-2.485219 0.17839,0 1.47925,2.530999 2.89029,5.624418 4.66854,10.234838 6.58188,18.406355 6.56768,28.049011 -0.012,9.020073 -1.1835,13.841213 -6.9159,28.493633 -5.28131,13.49912 -6.35824,19.83565 -4.7412,27.89635 1.75186,8.73279 4.08402,12.12311 17.5473,25.50949 10.17954,10.12131 13.76909,16.00168 15.25751,24.9945 2.94776,17.81003 -5.40415,37.98707 -19.06904,46.06808 -7.63219,4.51349 -14.93539,6.21358 -24.74094,5.75958 -21.60084,-1.00028 -35.27937,-14.34826 -35.24029,-34.38859 0.0406,-21.85883 11.93913,-35.83817 30.42821,-35.75551 8.65539,0.0378 15.96819,2.98312 21.95591,8.84034 3.89598,3.81114 6.12058,7.80318 7.30244,13.10423 1.45416,6.52239 0.1398,14.64 -3.18784,19.68804 -2.00194,3.037 -5.79576,6.79173 -8.49134,8.40384 -9.52472,5.69649 -22.31182,2.87831 -26.32593,-5.80194 -0.91256,-1.9733 -1.1405,-3.3453 -1.14786,-6.9094 -0.006,-3.90354 0.179,-4.8673 1.53206,-7.88371 1.76618,-3.93802 4.47096,-6.97336 6.99994,-7.85518 2.51305,-0.87633 8.53841,-0.36154 10.59031,0.90444 2.57968,1.59184 3.89476,4.04659 3.89476,7.27009 0,2.29069 -0.23168,3.00702 -1.40064,4.32914 -1.52457,1.7244 -4.82639,2.92352 -9.62396,3.49532 -3.25093,0.38756 -3.24637,0.72884 0.0408,2.9302 4.08976,2.74038 8.2901,1.8946 11.85776,-2.38776 3.61782,-4.34254 5.29633,-11.14072 4.07675,-16.5117 -0.78274,-3.44743 -4.19298,-7.41569 -7.17722,-8.35157 -3.11997,-0.97854 -9.45879,-1.26606 -12.42869,-0.56362 -10.31226,2.43834 -17.22815,16.43637 -14.89488,30.14783 1.19822,7.0415 4.79768,12.96085 9.41306,15.48013 5.1205,2.7949 15.29352,3.92686 20.96155,2.33235 13.54966,-3.81172 22.60225,-17.41446 22.6678,-34.06137 0.0356,-9.59278 -2.29724,-16.35958 -7.6434,-22.15024 -5.0407,-5.45968 -10.4712,-8.7216 -23.77014,-14.2779 -8.28921,-3.46325 -7.91888,-3.00851 -9.20733,-11.30415 -1.91204,-12.31025 0.36556,-20.4755 10.90454,-39.08861 9.61903,-16.9889 11.69523,-22.876314 11.63465,-32.991951 -0.0408,-6.973437 -0.47796,-8.062077 -1.64097,-4.097479 -1.89059,6.443818 -5.95631,14.121216 -15.01501,28.35303 -12.91531,20.29092 -16.17321,27.85874 -16.81148,39.05165 -0.3369,5.90998 0.93561,12.87482 3.49103,19.10515 0.98392,2.3988 1.78888,4.51252 1.78888,4.69704 0,0.1848 -1.28128,0.75318 -2.84732,1.26376 -5.22055,1.70206 -10.13837,5.0982 -16.05762,11.08918 -1.54633,1.56516 -2.91282,2.66412 -3.03663,2.44216 -0.124,-0.22186 -0.38602,-1.22766 -0.58313,-2.23485 -0.8032,-4.10819 -3.97751,-13.62239 -5.96319,-17.87315 -6.35303,-13.59986 -15.93012,-22.32579 -29.44882,-26.83165 -4.48296,-1.4942 -13.12669,-3.06128 -15.45238,-2.80142 l -1.40236,0.157 1.78348,2.79074 c 6.30964,9.8731 8.95524,20.46479 7.72125,30.91205 -0.76118,6.44417 -1.97783,11.22652 -6.93242,27.25006 -4.6387,15.00177 -5.77166,19.50067 -6.522,25.89839 -1.54956,13.21222 3.46364,24.94427 12.6289,29.55465 3.71125,1.8669 10.04728,3.25339 13.90737,3.04334 l 2.93395,-0.1594 -6.55139,-3.62288 c -9.54464,-5.27815 -12.08286,-8.26788 -14.07079,-16.57369 -0.90256,-3.77109 -1.01065,-5.34074 -0.77059,-11.19163 0.30981,-7.55083 1.13415,-11.61764 5.30343,-26.16383 7.52913,-26.26858 8.41661,-35.97779 4.43601,-48.53118 -0.80803,-2.54826 -1.46916,-4.74148 -1.46916,-4.87384 0,-0.1322 1.12158,0.35966 2.49242,1.09382 16.17572,8.66048 27.42747,24.36483 29.67425,41.41687 0.29652,2.25102 0.74244,11.86221 0.99082,21.35832 0.3831,14.65097 0.6045,17.88471 1.4617,21.35385 1.49292,6.04271 3.56418,9.71537 8.00982,14.20303 3.16262,3.1924 4.88405,4.42446 9.46315,6.77282 3.07852,1.57879 7.71418,3.45696 10.30158,4.17365 4.09608,1.13469 6.41358,1.58321 13.61765,2.63533 3.61934,0.52837 13.9893,-0.1742 17.67754,-1.19759 z" />
  <path
     id="azula"
     style="fill:#e6e6e6;"
     d="m 1069.4964,85.88779 c -0.6827,0 -1.6218,0.1704 -2.8164,0.51172 -1.024,0.34133 -2.2186,0.85444 -3.584,1.5371 -1.024,0.512 -2.0463,1.10835 -3.0703,1.79101 -1.024,0.68267 -1.963,1.45135 -2.8164,2.30468 -0.5121,0.512 -0.94,1.02316 -1.2812,1.53516 -0.1708,0.34133 -0.2559,0.76924 -0.2559,1.28124 0,0.512 0.1705,1.27874 0.5117,2.30273 0.3414,0.85333 0.7693,1.87759 1.2813,3.07226 0.3415,1.19464 0.6822,2.3041 1.0234,3.32811 0.3412,0.85332 0.5117,1.53682 0.5117,2.04882 0,5.11997 -2.0485,12.54346 -6.1445,22.27141 -3.9253,9.55729 -8.5335,19.62566 -13.8241,30.20694 -0.8533,1.87732 -1.7905,3.75548 -2.8145,5.6328 -0.8533,1.70666 -1.7924,3.41246 -2.8164,5.11913 -5.9733,11.60527 -11.5206,22.01637 -16.6406,31.23232 -5.12,9.04529 -8.0204,14.4222 -8.7031,16.12886 -1.1946,3.58399 -2.8172,6.31406 -4.8652,8.19138 -1.8773,1.70666 -3.8387,2.9865 -5.8867,3.83983 -0.512,0.34132 -1.1103,0.5969 -1.7929,0.76758 -0.6827,0.17064 -1.2791,0.34299 -1.7911,0.51367 -1.1946,0.17066 -2.0485,0.68182 -2.5605,1.53515 -0.3412,0.85333 -0.5117,2.47394 -0.5117,4.86327 v 0.76953 c 0,0.17068 0.085,0.42625 0.2558,0.76757 0.1708,0.68267 0.4264,1.27901 0.7676,1.79101 0.3414,0.512 0.8545,0.76758 1.5371,0.76758 0.512,0 1.9623,-0.0852 4.3516,-0.25586 2.3893,-0.17068 5.0341,-0.42626 7.9355,-0.76758 h 0.2559 c 1.7067,-0.17068 3.3291,-0.25586 4.8651,-0.25586 1.7067,-0.17063 3.157,-0.34103 4.3516,-0.51171 1.1947,-0.17067 2.1337,-0.76897 2.8164,-1.79297 0.8533,-1.02399 1.5349,-2.90019 2.0469,-5.63084 0.3412,-1.70666 1.3656,-4.35154 3.0722,-7.93552 1.8774,-3.58399 3.8407,-7.42547 5.8887,-11.52145 V 211.071 c 0.1708,-0.17064 0.2559,-0.34104 0.2559,-0.51172 1.536,-3.07198 2.9862,-6.05763 4.3515,-8.95895 1.536,-2.90132 2.6455,-5.37583 3.3282,-7.42381 0.1708,-0.34132 0.2558,-0.59885 0.2558,-0.76953 0.1704,-0.34135 0.3409,-0.68212 0.5117,-1.02343 1.3654,-3.07199 3.2435,-4.86299 5.6328,-5.37499 2.3893,-0.68266 7.4235,-1.02538 15.1035,-1.02538 2.3893,0 5.5454,0.0852 9.4707,0.25585 4.096,0 8.3633,0.17236 12.8007,0.51367 5.2907,0.17067 10.2397,0.59663 14.8476,1.2793 4.608,0.512 7.8512,1.28069 9.7285,2.30468 0.6827,0.34133 1.792,1.87675 3.328,4.60741 1.7067,2.73065 3.4977,5.80149 5.375,9.21481 0.3412,0.68267 0.5988,1.36616 0.7696,2.04882 0.3414,0.512 0.6822,1.10835 1.0234,1.79102 1.7067,3.41332 3.2421,6.6565 4.6074,9.72848 1.3655,3.07199 2.2194,5.2909 2.5606,6.65623 0.6827,2.21865 1.5365,4.26719 2.5605,6.14451 1.024,1.70668 2.3039,2.73094 3.8399,3.07226 0.512,0.17069 1.2787,0.42626 2.3027,0.76758 1.024,0.17064 2.2187,0.34104 3.584,0.51171 0.6827,0.17064 1.3662,0.34104 2.0488,0.51172 0.6827,0 1.4514,0.0852 2.3047,0.25586 1.8772,0.34132 3.7534,0.59689 5.6308,0.76757 1.8773,0.17068 3.2423,0.25782 4.0957,0.25782 h 0.2558 0.5137 c 1.1947,0 2.3022,-0.34273 3.3262,-1.02539 1.1946,-0.68267 1.7929,-1.87732 1.7929,-3.58398 0,-1.36532 -2.3893,-4.52136 -7.1679,-9.47067 -4.7787,-4.94931 -13.3115,-18.26281 -25.5995,-39.93737 -9.3867,-16.55459 -17.238,-31.65715 -23.5527,-45.31042 -6.3146,-13.65327 -12.373,-26.45366 -18.1757,-38.40027 -0.1704,-0.34135 -0.341,-0.68212 -0.5118,-1.02344 -0.1704,-0.51201 -0.341,-0.93992 -0.5117,-1.28124 -0.6827,-1.19466 -1.4514,-2.38932 -2.3047,-3.58397 -0.6827,-1.19467 -1.3643,-2.21894 -2.0468,-3.07226 -1.1947,-1.19466 -2.3041,-2.13179 -3.3281,-2.81444 -1.024,-0.85334 -1.7927,-1.28125 -2.3047,-1.28125 z m 2.0489,36.35145 c 0.3415,0 0.6822,0.17235 1.0234,0.51367 0.3412,0.17068 0.5968,0.51145 0.7676,1.02343 0.5119,1.024 1.1102,2.47423 1.7929,4.35155 0.6825,1.70667 1.7068,3.84039 3.0722,6.40037 l 20.2227,39.67957 h -46.3359 c -1.1946,0 -2.2188,-0.0852 -3.0722,-0.25586 -0.8533,-0.34134 -1.2793,-0.85444 -1.2793,-1.5371 0,-0.85332 0.426,-2.13318 1.2793,-3.83983 0.8534,-1.70667 2.2184,-4.43674 4.0957,-8.19139 l 13.3125,-27.13663 c 0.3412,-0.68266 0.5968,-1.36421 0.7675,-2.04687 0.3412,-0.68267 0.5988,-1.45135 0.7696,-2.30468 0.1708,-0.17064 0.2558,-0.34104 0.2558,-0.51172 0,-0.17068 0.085,-0.42626 0.2559,-0.76758 0.5122,-1.36532 0.9381,-2.55997 1.2793,-3.58397 0.512,-1.19466 1.1104,-1.79296 1.793,-1.79296 z m -180.9456,102.40075 60.3361,-1.792 h 1.024 c 0.3412,-0.17068 0.6825,-0.25602 1.0239,-0.25602 0.8534,-0.34132 1.7067,-0.68265 2.56,-1.02399 0.8533,-0.34132 1.7067,-0.68266 2.5601,-1.02401 1.1946,-0.51199 2.3039,-1.02399 3.3279,-1.53599 1.1947,-0.512 2.2187,-0.768 3.072,-0.768 1.3654,0 2.3894,0.256 3.072,0.768 0.8533,0.34132 1.28,1.19465 1.28,2.56 0,0.34131 -0.256,1.45064 -0.768,3.32799 -0.3412,1.87733 -0.8532,3.84 -1.5359,5.888 -0.6827,2.21867 -1.5361,4.352 -2.5601,6.39999 -1.024,1.87733 -2.048,2.816 -3.072,2.816 h -1.2799 c -0.3412,0 -0.6826,-0.0853 -1.0241,-0.25602 -1.024,-0.17068 -2.1333,-0.42668 -3.328,-0.768 -1.024,-0.34132 -2.4746,-0.85332 -4.3519,-1.53599 -0.6827,-0.34132 -2.7307,-0.59732 -6.144,-0.768 -3.4134,-0.17068 -24.6667,-0.25602 -35.76,-0.25602 -11.43473,0 -18.85875,0.17066 -22.27206,0.51198 -3.24267,0.17068 -5.5467,0.59734 -6.9121,1.27999 -0.85327,0.34132 -1.87723,0.68265 -3.0719,1.024 -1.024,0.34132 -2.048,0.59732 -3.072,0.768 h -1.024 -0.768 c -0.512,0 -1.02401,-0.0853 -1.53602,-0.25602 -0.3412,-0.34132 -0.76787,-0.68265 -1.28,-1.024 -0.68267,-0.68266 -1.45067,-1.45066 -2.304,-2.304 -0.68267,-1.02399 -1.28,-2.04799 -1.792,-3.07199 -0.85333,-1.36533 -1.536,-2.64533 -2.048,-3.84 -0.512,-1.19467 -0.768,-2.048 -0.768,-2.56 v -0.51198 c 0.1708,-0.34132 0.2562,-0.59732 0.2562,-0.768 0.1708,-0.512 0.4268,-1.024 0.768,-1.536 l 1.536,-2.048 c 0.68267,-0.85333 1.28,-1.87732 1.792,-3.07199 0.512,-1.19467 0.768,-2.64533 0.768,-4.352 0.3412,-5.46133 0.5118,-13.39733 0.5118,-23.80799 v -36.09598 c 0,-12.45865 -0.42667,-22.35731 -1.28,-29.69598 -0.85333,-7.50932 -1.70667,-13.39731 -2.56,-17.66398 -1.024,-4.096 -1.96267,-6.912 -2.816,-8.448 -0.85333,-1.70667 -1.28,-3.072 -1.28,-4.096 0,-0.68267 0.512,-1.62133 1.536,-2.816 1.19467,-1.36533 2.64533,-2.73066 4.352,-4.09599 0.512,-0.512 1.10933,-1.024 1.792,-1.536 l 2.048,-1.536 c 2.04801,-1.36533 3.84002,-2.47467 5.37602,-3.328 1.70667,-1.024 2.98667,-1.536 3.84,-1.536 0.512,0 1.024,0.0853 1.536,0.25602 0.6826,0 1.36527,0.17066 2.048,0.51198 1.36533,0.512 2.56,1.19467 3.584,2.048 1.19467,0.85333 1.792,1.96267 1.792,3.328 0,0.68267 -0.0854,1.536 -0.2562,2.56 -0.1708,1.02399 -0.4268,2.04799 -0.768,3.07199 -0.1708,1.02401 -0.4268,2.13334 -0.768,3.32801 -0.1708,1.19466 -0.2562,2.38932 -0.2562,3.58399 0,3.75467 -0.0854,7.59467 -0.2562,11.52 -0.1708,3.75466 -0.3414,7.50932 -0.5118,11.26399 -0.1708,3.75466 -0.3414,7.50932 -0.5118,11.26399 -0.1708,3.584 -0.2562,7.168 -0.2562,10.752 v 4.86399 c 0,1.536 0.0854,3.072 0.2562,4.60799 v 2.04801 1.792 6.91199 c 0.1708,2.38933 0.2562,5.03466 0.2562,7.93599 v 4.352 c 0,1.536 -0.0854,2.98667 -0.2562,4.352 0,4.09599 -0.1706,8.10666 -0.5118,12.03199 -0.1708,3.92533 -0.4268,7.59466 -0.768,11.00799 -0.3412,4.77867 -0.68257,8.96 -1.0241,12.54399 -0.3412,3.584 -0.5118,6.144 -0.5118,7.68 0,0.68267 0.256,1.19467 0.768,1.536 0.68273,0.34132 1.45073,0.51198 2.304,0.51198 h 1.2801 c 0.512,-0.17068 1.024,-0.34134 1.536,-0.51198 0.51197,-0.17068 1.02396,-0.25602 1.53596,-0.25602 0.512,-0.17068 1.024,-0.25602 1.536,-0.25602 z M 710.21568,97.92007 q 0,-5.888 1.02402,-8.448 1.27998,-2.56 5.11997,-2.56 1.536,0 4.09602,1.02401 2.81597,1.024 5.88797,2.816 1.79202,1.02399 3.58403,2.30399 2.04798,1.28 3.58398,2.816 1.79202,1.28 2.81603,2.816 1.02396,1.28 1.02396,2.56 0,0.25602 0,0.768 0,0.25602 -0.2562,0.51198 -0.2562,1.79199 -1.536,3.83999 -1.28003,2.048 -2.56001,6.144 -1.536,4.86399 -3.072,13.82399 -1.28004,8.70399 -1.28004,24.57598 0,16.38399 1.02402,28.67198 1.02402,12.032 5.12004,21.50399 2.55995,5.632 8.95996,10.75199 6.65597,5.12 14.08,7.936 3.58398,1.536 7.16801,2.56 3.58398,0.768 6.65598,0.768 19.19997,0 27.64796,-15.872 8.70401,-15.87199 11.52004,-35.07197 1.536,-10.24 1.79196,-19.96799 0.5118,-9.98399 0.5118,-17.40799 0,-9.21599 -0.5118,-15.35999 -0.5118,-6.14399 -1.02396,-9.98399 -0.5118,-3.84 -1.02402,-5.88799 -0.5118,-2.04801 -0.5118,-3.328 0,-3.32801 2.81598,-4.608 2.81598,-1.28001 6.91199,-1.28001 4.86401,0 8.70401,2.30401 4.09595,2.04799 4.09595,6.39999 0,4.864 -1.536,18.94399 -1.53599,14.07999 -4.09595,29.95198 -1.28004,7.93599 -2.56002,15.87199 -1.27997,7.68 -2.56001,14.33599 -1.27998,5.632 -2.55996,9.98399 -1.02402,4.352 -2.04804,7.168 -4.60799,12.032 -13.05598,20.22399 -8.19197,7.936 -17.152,12.79999 -2.30399,1.28 -4.60799,2.304 -2.304,1.024 -4.60799,1.792 -2.56002,1.024 -5.376,1.28 -2.56001,0.25602 -5.11997,0.25602 -4.09601,0 -9.21599,-1.024 -5.12003,-1.024 -10.24,-2.816 -8.19203,-2.816 -15.616,-7.67999 -7.16801,-4.864 -10.49603,-11.52 -6.14399,-12.03199 -8.95996,-44.79997 -2.56002,-32.76797 -2.56002,-72.19195 z m -63.71171,136.19191 h -36.09595 q -18.68799,0 -29.43998,0.768 -10.75204,0.51198 -16.64001,1.28 -5.63202,1.024 -7.67999,1.792 -2.04798,0.51198 -3.32802,0.51198 -0.5118,0 -1.79196,-1.024 -1.28003,-1.024 -2.81603,-2.816 -0.768,-0.768 -1.536,-1.792 -0.768,-1.024 -1.27998,-2.048 -1.02402,-1.28 -1.536,-2.56 -0.5118,-1.53599 -0.5118,-2.55999 0,-4.096 28.16001,-33.27999 28.41596,-29.43997 62.20797,-68.09595 3.84,-4.352 7.67999,-8.704 3.84,-4.60799 7.67999,-9.21599 l -35.32795,1.536 q -6.40001,0.25602 -11.00801,0.51198 -4.35203,0.25602 -8.44799,0.25602 -3.32801,0.25602 -6.65603,0.25602 -3.32795,0 -7.67999,0 -13.312,0 -17.15199,-0.768 -3.84,-1.024 -3.84,-4.608 0,-1.28 0.5118,-3.32799 0.5118,-2.04801 1.27998,-4.09601 1.02402,-3.07199 2.81598,-5.88799 1.79201,-2.816 3.58403,-3.328 0.2562,0 0.2562,0 0.2562,0 0.5118,0 0.768,0 1.27998,0.25602 0.5118,0 1.27998,0.51198 0.768,0.25602 1.536,1.024 1.02401,0.768 2.30399,1.536 1.79202,1.024 4.35204,2.048 2.56001,1.024 6.65597,1.024 2.30399,0 8.70401,0.25602 6.40001,0 13.56802,0.25602 3.83999,0 7.42397,0 3.83999,0 6.91199,0 3.07199,0 6.65597,0 3.58403,0 7.16801,0 6.91199,-0.25602 12.80002,-0.25602 6.14399,-0.25602 8.95997,-0.25602 1.28004,0 2.304,-0.25602 1.28003,-0.25602 2.04803,-0.51198 0.5118,-0.25602 0.768,-0.25602 0.5118,-0.25602 1.02396,-0.51198 0.5118,0 1.02402,0 0.5118,-0.25602 1.02402,-0.25602 0.768,0 2.30399,0.51198 1.79196,0.51198 3.58398,1.536 2.04798,1.024 3.58397,2.56 1.79202,1.28 2.56002,2.816 0,0.25602 0,0.768 0.2562,0.25601 0.2562,0.51198 0,2.81599 -16.64002,19.96798 -16.63995,16.89599 -36.35197,37.88797 -2.04797,1.792 -3.83999,3.84 -1.79202,2.048 -3.58398,3.84 -15.10402,16.12799 -27.64802,30.97598 -12.28798,14.59199 -16.384,24.06399 h 24.06399 q 16.64002,0 30.97598,-0.76801 14.33602,-0.768 24.06398,-1.79199 5.63202,-0.51198 9.21605,-1.024 3.84,-0.51198 5.37599,-0.768 1.79196,-0.51198 3.58398,-1.28 2.04798,-1.024 3.83999,-1.792 2.56002,-1.28 4.86402,-2.304 2.55995,-1.28 4.35197,-1.28 1.28004,0 2.04804,1.024 0.768,0.768 1.27998,1.792 0,0.51198 0,1.024 0.2562,0.25602 0.2562,0.768 0,0.51198 -0.768,3.84 -0.5118,3.072 -1.536,6.91199 -1.02402,4.096 -2.81604,7.424 -1.53599,3.328 -3.32801,3.328 -1.536,0 -4.60799,-0.25602 -2.81598,-0.25602 -6.912,-0.768 -4.35197,-0.25602 -9.72796,-0.51198 -5.37599,-0.25602 -11.77601,-0.25602 z M 440.5039,85.88779 c 0.68268,0 1.62177,0.1704 2.81641,0.51172 1.024,0.34133 2.21863,0.85444 3.58398,1.53711 1.024,0.512 2.04827,1.10835 3.07227,1.79101 1.024,0.68267 1.96113,1.45136 2.81445,2.30469 0.51212,0.512 0.94005,1.02316 1.28125,1.53516 0.1708,0.34133 0.25586,0.76925 0.25586,1.28125 0,0.512 -0.17052,1.27874 -0.51172,2.30273 -0.34136,0.85334 -0.76925,1.8776 -1.28125,3.07227 -0.34144,1.19465 -0.68223,2.30411 -1.02343,3.32812 -0.3412,0.85333 -0.51172,1.53683 -0.51172,2.04883 0,5.11999 2.04854,12.5435 6.14453,22.27148 3.92535,9.55732 8.53355,19.62572 13.82422,30.20703 0.85332,1.87733 1.7924,3.75549 2.8164,5.63282 0.85332,1.70666 1.79046,3.41247 2.81446,5.11914 5.97334,11.60531 11.52063,22.01644 16.64062,31.23242 5.11999,9.04532 8.02045,14.42224 8.70313,16.12891 1.19464,3.58399 2.81724,6.31408 4.86523,8.1914 1.87736,1.70667 3.83872,2.98651 5.88672,3.83985 0.51199,0.34132 1.11033,0.59689 1.79297,0.76757 0.68268,0.17064 1.27901,0.343 1.79101,0.51368 1.19468,0.17066 2.04855,0.68182 2.56055,1.53515 0.3412,0.85333 0.51172,2.47395 0.51172,4.86328 v 0.76953 c 0,0.17068 -0.0851,0.42626 -0.25586,0.76758 -0.1708,0.68267 -0.42638,1.27902 -0.76758,1.79102 -0.34136,0.512 -0.85447,0.76758 -1.53711,0.76758 -0.512,0 -1.96221,-0.0852 -4.35156,-0.25586 -2.38932,-0.17068 -5.0342,-0.42626 -7.93555,-0.76758 h -0.25586 c -1.70667,-0.17068 -3.32923,-0.25586 -4.86523,-0.25586 -1.70667,-0.17064 -3.15692,-0.34104 -4.35156,-0.51172 -1.19468,-0.17067 -2.13373,-0.76897 -2.81641,-1.79297 -0.85331,-1.024 -1.53487,-2.9002 -2.04687,-5.63086 -0.34132,-1.70666 -1.36559,-4.35155 -3.07227,-7.93554 -1.87736,-3.584 -3.84068,-7.4255 -5.88867,-11.52149 v -0.25586 c -0.1708,-0.17064 -0.25586,-0.34104 -0.25586,-0.51172 -1.536,-3.07199 -2.98621,-6.05765 -4.35156,-8.95898 -1.536,-2.90133 -2.64549,-5.37584 -3.32813,-7.42383 -0.1708,-0.34132 -0.25586,-0.59885 -0.25586,-0.76953 -0.1704,-0.34135 -0.34092,-0.68212 -0.51172,-1.02344 -1.36536,-3.072 -3.2435,-4.863 -5.63281,-5.375 -2.38932,-0.68266 -7.4235,-1.02539 -15.10351,-1.02539 -2.38932,0 -5.5454,0.0852 -9.47071,0.25586 -4.09599,0 -8.36343,0.17236 -12.80078,0.51367 -5.29067,0.17067 -10.23967,0.59663 -14.84766,1.2793 -4.60798,0.512 -7.85119,1.28069 -9.72851,2.30469 -0.68268,0.34133 -1.79213,1.87675 -3.32813,4.60742 -1.70667,2.73066 -3.49768,5.80151 -5.375,9.21484 -0.3412,0.68267 -0.59873,1.36616 -0.76953,2.04883 -0.34148,0.512 -0.68224,1.10835 -1.02344,1.79102 -1.70663,3.41333 -3.24206,6.65652 -4.60742,9.72851 -1.36543,3.072 -2.21934,5.29092 -2.56054,6.65625 -0.68268,2.21866 -1.53655,4.2672 -2.56055,6.14453 -1.024,1.70668 -2.30385,2.73095 -3.83984,3.07227 -0.512,0.17069 -1.27874,0.42626 -2.30274,0.76758 -1.024,0.17064 -2.21862,0.34104 -3.58398,0.51172 -0.68264,0.17064 -1.36615,0.34104 -2.04883,0.51171 -0.68268,0 -1.45137,0.0852 -2.30469,0.25586 -1.87732,0.34132 -3.75351,0.5969 -5.63086,0.76758 -1.87732,0.17068 -3.24238,0.25781 -4.0957,0.25781 h -0.25586 -0.51172 c -1.19467,0 -2.30413,-0.34272 -3.32812,-1.02539 C 355.59829,234.96489 355,233.77023 355,232.06357 c 0,-1.36533 2.3893,-4.52137 7.16797,-9.4707 4.77866,-4.94933 13.31163,-18.26287 25.59961,-39.9375 9.38665,-16.55464 17.23807,-31.65724 23.55273,-45.31055 6.31463,-13.65331 12.37311,-26.45374 18.17578,-38.40039 0.1704,-0.34135 0.34092,-0.68212 0.51172,-1.02344 0.1704,-0.51201 0.34092,-0.93993 0.51172,-1.28125 0.68264,-1.19466 1.45133,-2.38932 2.30469,-3.58398 0.68263,-1.19467 1.36419,-2.21894 2.04687,-3.07227 1.19468,-1.19466 2.30413,-2.13179 3.32813,-2.81445 1.02399,-0.85334 1.79269,-1.28125 2.30468,-1.28125 z m -2.04882,36.35156 c -0.34148,0 -0.68224,0.17235 -1.02344,0.51367 -0.3412,0.17068 -0.59678,0.51145 -0.76758,1.02344 -0.512,1.024 -1.11029,2.47423 -1.79297,4.35156 -0.68268,1.70667 -1.70695,3.8404 -3.07227,6.40039 l -20.22265,39.67969 h 46.33594 c 1.19468,0 2.21894,-0.0852 3.07226,-0.25586 0.85335,-0.34134 1.2793,-0.85444 1.2793,-1.53711 0,-0.85332 -0.42595,-2.13318 -1.2793,-3.83984 -0.85332,-1.70667 -2.21838,-4.43675 -4.0957,-8.19141 l -13.3125,-27.13672 c -0.3412,-0.68266 -0.59678,-1.36421 -0.76758,-2.04687 -0.3412,-0.68267 -0.59873,-1.45136 -0.76953,-2.30469 -0.1708,-0.17064 -0.25586,-0.34104 -0.25586,-0.51172 0,-0.17068 -0.0851,-0.42626 -0.25586,-0.76758 -0.51216,-1.36533 -0.9381,-2.55998 -1.2793,-3.58398 -0.51199,-1.19467 -1.11033,-1.79297 -1.79296,-1.79297 z" />
</svg>
